/vscmnt/brussel_pixiu_data/_data_brussel/112/vsc11236/PredSimResults/SUBJ10opt3D/weighted-expIG/worker_03.mot
version=1
nRows=4
nColumns=50
inDegrees=yes
endheader
                time	         pelvis_tilt	         pelvis_list	     pelvis_rotation	           pelvis_tx	           pelvis_ty	           pelvis_tz	       hip_flexion_r	     hip_adduction_r	      hip_rotation_r	        knee_angle_r	       ankle_angle_r	         mtp_angle_r	       hip_flexion_l	     hip_adduction_l	      hip_rotation_l	        knee_angle_l	       ankle_angle_l	         mtp_angle_l	    lumbar_extension	      lumbar_bending	     lumbar_rotation	 ercspn_r/activation	 intobl_r/activation	 extobl_r/activation	    abd_r/activation	    add_r/activation	hamstrings_r/activation	bifemsh_r/activation	glut_max_r/activation	iliopsoas_r/activation	rect_fem_r/activation	  vasti_r/activation	gastroc_r/activation	 soleus_r/activation	tib_ant_r/activation	 ercspn_l/activation	 intobl_l/activation	 extobl_l/activation	    abd_l/activation	    add_l/activation	hamstrings_l/activation	bifemsh_l/activation	glut_max_l/activation	iliopsoas_l/activation	rect_fem_l/activation	  vasti_l/activation	gastroc_l/activation	 soleus_l/activation	tib_ant_l/activation	
          0.00000000	         -4.71789916	         -0.91965418	          6.66790587	          0.00000000	          0.82117322	         -0.01338998	         31.17950148	         -1.40110623	         -5.58982117	         -7.46686879	          2.96100465	          0.26196497	        -15.07018787	         -0.43979710	         -0.15994753	         -6.57643061	          8.93537048	         26.98263693	         -6.22698993	         -0.36826184	         -7.15186554	          0.10637396	          0.14275871	          0.01000000	          0.00999999	          0.22063627	          0.11982644	          0.18652657	          0.05946935	          0.10507093	          0.01000001	          0.00999999	          0.01703673	          0.01296159	          0.29675774	          0.09790672	          0.00999999	          0.00999999	          0.05895965	          0.01000013	          0.01433701	          0.22102761	          0.02034754	          0.48876694	          0.01000001	          0.00999999	          0.32908879	          0.26547285	          0.02343869	
          0.01166040	         -4.75173500	         -0.92094574	          6.80152783	          0.01580734	          0.81974093	         -0.01302255	         31.12580383	         -1.27472340	         -5.28893546	         -9.24142379	          2.59051783	          0.24714330	        -15.07903042	         -0.60328101	         -0.47378855	         -8.46630103	          8.29880449	         28.72007455	         -5.97366341	          0.15076245	         -7.48883302	          0.08906506	          0.11952937	          0.00999999	          0.01000000	          0.18473490	          0.10111348	          0.15617546	          0.11006308	          0.08797406	          0.00999999	          0.00999999	          0.01426456	          0.01085251	          0.36596429	          0.11509097	          0.00999999	          0.00999999	          0.04936589	          0.02970080	          0.01760999	          0.18506256	          0.01703664	          0.40923604	          0.01000000	          0.00999999	          0.28983274	          0.25389962	          0.01962481	
          0.02332080	         -4.77634562	         -0.93875351	          6.89715745	          0.03185684	          0.81863224	         -0.01252080	         30.88961157	         -1.13809560	         -5.04021821	        -10.71078290	          2.11838946	          0.23750772	        -14.92102184	         -0.79852725	         -0.81606325	        -10.66934880	          7.47360242	         30.43774990	         -5.70456312	          0.68091193	         -7.79376035	          0.10378411	          0.10007986	          0.00999999	          0.05343469	          0.17323953	          0.08766937	          0.13076299	          0.12612263	          0.07365914	          0.00999999	          0.00999999	          0.01194347	          0.00999999	          0.42486365	          0.12674949	          0.00999999	          0.00999999	          0.04133320	          0.02486797	          0.01474470	          0.15494966	          0.01426448	          0.34264619	          0.01000000	          0.00999999	          0.24267190	          0.23684382	          0.01643151	
          0.03498119	         -4.79277227	         -0.95203991	          6.95480961	          0.04793873	          0.81794138	         -0.01189211	         30.57831403	         -1.00110137	         -4.89679585	        -12.06456090	          1.65947847	          0.22411940	        -14.55364579	         -1.00345453	         -1.18932936	        -13.22464632	          6.44151171	         32.03305419	         -5.44321505	          1.19885284	         -8.06116658	          0.10860338	          0.08379512	          0.00999999	          0.09558954	          0.21022005	          0.07446948	          0.10948557	          0.13216579	          0.06167351	          0.00999999	          0.01000000	          0.01000006	          0.00999999	          0.45596080	          0.15491309	          0.00999999	          0.00999999	          0.03460756	          0.02320161	          0.02013000	          0.12973665	          0.01194340	          0.28689167	          0.01000000	          0.00999999	          0.20318494	          0.21664376	          0.01375782	
